<?xml version="1.0" encoding="utf-8"?>
<!-- Generator: Adobe Illustrator 19.2.1, SVG Export Plug-In . SVG Version: 6.00 Build 0)  -->
<svg version="1.1" id="Layer_1" xmlns="http://www.w3.org/2000/svg" xmlns:xlink="http://www.w3.org/1999/xlink" x="0px" y="0px"
	 viewBox="0 0 595.3 841.9" style="enable-background:new 0 0 595.3 841.9;" xml:space="preserve">
<style type="text/css">
	.st0{fill:#C4C4C4;}
</style>
<g>
	<path class="st0" d="M93.4,153.2l11.3,27.6h-3.3l-3.3-8.1H85.4l-3.2,8.1H79l11.4-27.6H93.4z M91.7,156.6L86.4,170H97L91.7,156.6z"
		/>
	<path class="st0" d="M117.5,153.2c5.6,0,10.4,2.1,10.4,7.9c0,4.3-2.9,7-6.7,8l7.9,11.7h-3.6l-7.3-11.3h-5v11.3h-3v-27.6H117.5z
		 M124.8,161.2c0-3.6-2.7-5.4-7.5-5.4h-4.1V167h4.1C122.1,167,124.8,164.6,124.8,161.2z"/>
	<path class="st0" d="M133.6,155.9v-2.7h22.9v2.7h-9.9v24.9h-3v-24.9H133.6z"/>
</g>
<path class="st0" d="M166.6,140.8c2.2,0,4.2,1.6,4.2,4c0,2.3-1.9,4-4.2,4c-2.1,0-4.1-1.6-4.1-4C162.5,142.5,164.4,140.8,166.6,140.8
	z M170,153.2v27.7h-6.7v-27.7H170z"/>
<path class="st0" d="M183.8,153.2v5.2c2.5-3.9,5.8-5.9,10.2-5.9c4.2,0,7.6,1.9,8.9,6.8c2.6-4.5,5.9-6.8,10.6-6.8
	c5.5,0,9.8,3.1,9.8,12.1v16.2h-6.6V165c0-4.6-1.8-6.8-5-6.8c-3.6,0-6.1,2.6-8.2,7.9v14.7h-6.6V165c0-4.6-1.7-6.8-4.8-6.8
	c-3.7,0-6.2,2.6-8.3,7.9v14.7h-6.7v-27.6H183.8z"/>
<path class="st0" d="M236.8,153.2v5.2c2.5-3.9,5.8-5.9,10.2-5.9c4.2,0,7.6,1.9,8.9,6.8c2.6-4.5,5.9-6.8,10.6-6.8
	c5.5,0,9.8,3.1,9.8,12.1v16.2h-6.6V165c0-4.6-1.8-6.8-5-6.8c-3.6,0-6.1,2.6-8.2,7.9v14.7h-6.6V165c0-4.6-1.7-6.8-4.8-6.8
	c-3.7,0-6.2,2.6-8.3,7.9v14.7h-6.7v-27.6H236.8z"/>
<path class="st0" d="M282.8,153.2h6.6v15.8c0,4.6,1.8,6.7,5,6.7c3.7,0,6.4-2.5,8.4-7.8v-14.7h6.6v27.6h-6.6v-5.2
	c-2.5,3.8-5.9,5.7-10.1,5.7c-5.7,0-9.9-2.9-9.9-11.9V153.2z"/>
<path class="st0" d="M323.2,153.2v5.2c2.6-3.9,6.1-5.9,10.3-5.9c5.8,0,10.1,2.9,10.1,11.9v16.4h-6.6v-15.9c0-4.7-1.8-6.7-5.1-6.7
	c-3.8,0-6.5,2.5-8.7,7.8v14.8h-6.7v-27.6H323.2z"/>
<g>
	<path class="st0" d="M353.5,151.5c2.3,0,4.2-1.7,4.2-4c0-2.5-1.9-4-4.2-4c-2.2,0-4.1,1.6-4.1,4
		C349.4,149.9,351.4,151.5,353.5,151.5z"/>
	<rect x="350.2" y="155.8" class="st0" width="6.7" height="25"/>
</g>
<path class="st0" d="M366,158.4h-4.9v-5.1h4.9v-9.1h6.6v9.1h8.2l2,5.1h-10.2V170c0,4.2,1.9,5.8,4.6,5.8c2,0,3.8-0.4,5.6-1.3l1,5.2
	c-2.4,1.1-5.1,1.8-8.4,1.8c-5.8,0-9.6-3-9.6-9.9V158.4z"/>
<path class="st0" d="M384.5,153.2h7.7l7.3,20.3l7.6-20.3h7.4l-16.2,38.6h-7.1L396,181L384.5,153.2z"/>
<polygon class="st0" points="445,163.7 434.5,163.7 434.5,153.2 427.8,153.2 427.8,163.7 417.3,163.7 417.3,170.4 427.8,170.4 
	427.8,180.9 434.5,180.9 434.5,170.4 445,170.4 "/>
</svg>
