<svg width="20" height="21" viewBox="0 0 20 21" fill="none" xmlns="http://www.w3.org/2000/svg">
<path d="M18.3952 13.1803C17.1707 13.1803 15.9684 12.988 14.8291 12.61C14.2708 12.4188 13.5845 12.5942 13.2438 12.9455L10.995 14.6499C8.38701 13.2522 6.78056 11.6399 5.40743 9.04111L7.05509 6.84213C7.48316 6.41292 7.6367 5.78594 7.45274 5.19766C7.07462 4.04776 6.88253 2.84123 6.88253 1.61132C6.88259 0.722831 6.16264 0 5.27775 0H1.60484C0.719946 0 0 0.722831 0 1.61127C0 11.7951 8.25196 20.0801 18.3952 20.0801C19.2801 20.0801 20 19.3572 20 18.4688V14.7915C19.9999 13.9031 19.28 13.1803 18.3952 13.1803Z" fill="#FF5732"/>
</svg>
