<?xml version="1.0" encoding="iso-8859-1"?>
<!-- Generator: Adobe Illustrator 19.0.0, SVG Export Plug-In . SVG Version: 6.00 Build 0)  -->
<svg version="1.1" id="Capa_1" xmlns="http://www.w3.org/2000/svg" xmlns:xlink="http://www.w3.org/1999/xlink" x="0px" y="0px"
	 viewBox="0 0 512.001 512.001" style="enable-background:new 0 0 512.001 512.001;" xml:space="preserve" fill="#07001f">
<g>
	<g>
		<path d="M511.177,130.377l-24.594-8.137c-2.965-0.975-5.235-3.384-6.034-6.401c-2.662-10.231-6.723-20.045-12.069-29.165
			c-1.594-2.684-1.698-5.999-0.274-8.777l11.611-23.223c-3.383-4.114-6.949-8.045-10.697-11.794
			c-3.735-3.777-7.672-7.348-11.794-10.697l-23.223,11.611c-2.768,1.47-6.107,1.366-8.777-0.274
			c-9.12-5.346-18.935-9.407-29.166-12.069c-3.017-0.799-5.425-3.069-6.4-6.034l-8.137-24.594c-10.577-1.097-21.24-1.097-31.817,0
			l-8.137,24.594c-0.975,2.965-3.383,5.235-6.4,6.034c-10.234,2.652-20.05,6.714-29.166,12.069
			c-2.684,1.595-5.999,1.698-8.777,0.274l-15.176-7.589h-0.001C257.834,13.055,225.574,0.099,192,0
			C116.389,0,54.857,65.645,54.857,146.286c-5.043,0.015-9.128,4.099-9.143,9.143v54.857c0.015,5.043,4.099,9.128,9.143,9.143V256
			c-0.59,19.551,14.737,35.9,34.286,36.571h26.149c0.183,0.366,0.457,0.823,0.64,1.189c1.28,2.377,2.56,4.663,3.749,6.766
			c0.091,0.183,0.274,0.456,0.366,0.64c3.291,5.761,6.4,10.423,8.96,14.08c0.149,0.129,0.273,0.284,0.366,0.457
			c0.64,1.006,1.371,2.011,1.92,2.742c0.823,1.097,1.554,2.104,2.103,2.834c2.445,3.133,3.766,6.997,3.749,10.971v21.12
			c0.03,15.577-8.506,29.91-22.217,37.304L33.463,435.2C12.793,446.384-0.061,468.019,0,491.52L0,512h384v-20.48
			c0.062-23.501-12.793-45.136-33.463-56.32l-81.463-44.526c-13.711-7.394-22.247-21.726-22.217-37.304v-21.119
			c-0.017-3.974,1.303-7.839,3.749-10.971c0.549-0.731,1.28-1.738,2.103-2.834c0.549-0.731,1.28-1.737,1.92-2.742
			c0.093-0.174,0.217-0.328,0.366-0.457c2.56-3.657,5.669-8.319,8.96-14.08c0.091-0.183,0.274-0.456,0.366-0.639
			c1.189-2.103,2.469-4.389,3.749-6.766c1.006-1.921,2.011-3.84,2.926-5.76c0.342-0.622,0.647-1.263,0.914-1.92
			c4.971-9.939,8.834-20.395,11.52-31.178V128c-0.015-0.398,0.016-0.797,0.091-1.189c1.307-16.623-3.944-33.097-14.629-45.897
			l-0.183-0.183c-0.024,0.001-0.048-0.009-0.065-0.026c-0.017-0.017-0.027-0.04-0.027-0.065
			c-9.356-9.979-21.385-17.057-34.651-20.39V60.16c-0.468-0.078-0.927-0.201-1.371-0.366c-2.377-0.641-4.754-1.281-7.314-1.738
			c-0.823-0.183-1.737-0.365-2.651-0.548c-2.469-0.457-4.846-0.824-7.497-1.19c-1.555-0.182-3.2-0.365-4.846-0.547
			c-2.011-0.183-4.023-0.365-6.126-0.548c-3.931-0.183-7.954-0.366-12.16-0.366s-8.229,0.183-12.16,0.366
			c-2.103,0.183-4.114,0.365-6.126,0.548c-1.646,0.183-3.291,0.366-4.846,0.548c-2.651,0.366-5.029,0.732-7.497,1.19
			c-0.914,0.183-1.829,0.365-2.651,0.548c-2.56,0.456-4.937,1.097-7.314,1.738c-0.445,0.165-0.904,0.287-1.371,0.365v0.091
			c-13.379,3.405-25.501,10.576-34.926,20.664c-10.685,12.8-15.936,29.274-14.629,45.897c0.076,0.391,0.107,0.79,0.091,1.189
			v126.903c1.55,6.628,3.66,13.112,6.309,19.383H89.143c-9.442-0.684-16.576-8.837-16-18.286v-36.571h9.143v-73.143h-9.143
			c0-70.583,53.303-128,118.857-128c25.515,0.103,50.251,8.799,70.217,24.686c14.583,11.722,26.439,26.479,34.743,43.246
			c3.154,6.378,5.754,13.016,7.771,19.84c2.323,7.14,3.946,14.489,4.846,21.943c0.845,6.059,1.273,12.168,1.28,18.286h-9.143v73.143
			h27.429c5.043-0.015,9.128-4.099,9.143-9.143v-54.857c-0.015-5.043-4.099-9.128-9.143-9.143
			c-0.021-19.102-3.554-38.038-10.423-55.863c-2.26-5.873-4.918-11.585-7.954-17.097c15.799-12.009,35.104-18.498,54.949-18.469
			c50.495,0,91.429,40.934,91.429,91.429c0,50.495-40.934,91.429-91.429,91.429c-8.066-0.017-16.093-1.124-23.863-3.291
			c-3.906,2.112-8.268,3.242-12.709,3.291h-27.429v10.057c1.546,0.058,3.054,0.498,4.389,1.28
			c9.116,5.355,18.932,9.417,29.166,12.069c3.017,0.798,5.425,3.069,6.4,6.033l8.137,24.594c10.577,1.098,21.24,1.098,31.817,0
			l8.137-24.594c0.975-2.965,3.383-5.235,6.4-6.033c10.231-2.662,20.045-6.723,29.166-12.069c2.684-1.595,5.999-1.698,8.777-0.274
			l23.223,11.611c4.122-3.349,8.06-6.92,11.794-10.696c3.749-3.75,7.314-7.681,10.697-11.794l-11.611-23.223
			c-1.425-2.778-1.321-6.094,0.274-8.777c5.393-9.097,9.457-18.919,12.069-29.166c0.799-3.017,3.07-5.425,6.034-6.4l24.594-8.137
			C512.275,151.617,512.275,140.955,511.177,130.377z M164.572,274.286h-7.497c3.866-10.931,14.188-18.252,25.783-18.286h18.286
			c15.148,0,27.429,12.28,27.429,27.429s-12.28,27.429-27.429,27.429h-18.286c-9.113-0.03-17.626-4.544-22.766-12.069
			c-1.277-1.929-2.292-4.02-3.017-6.217h7.497c5.049,0,9.143-4.093,9.143-9.143S169.621,274.286,164.572,274.286z"/>
	</g>
</g>
<g>
</g>
<g>
</g>
<g>
</g>
<g>
</g>
<g>
</g>
<g>
</g>
<g>
</g>
<g>
</g>
<g>
</g>
<g>
</g>
<g>
</g>
<g>
</g>
<g>
</g>
<g>
</g>
<g>
</g>
</svg>
