<svg height="512" viewBox="0 0 512 512" width="512" xmlns="http://www.w3.org/2000/svg"><g><g fill="#07001f"><g><path d="m304 392-9 24h-79l-8-24z"/><path d="m304 392-9 24h-79l-8-24z"/><path d="m416 152h-320a32 32 0 0 0 -32 32v208h384v-208a32 32 0 0 0 -32-32zm8 216h-336v-192h136v24h-32l64 64 64-64h-32v-24h136z"/><path d="m320 200-64 64-64-64h32v-24h64v24z"/></g><path d="m320 200-64 64-64-64h32v-128h64v128z"/></g><g fill="#07001f"><path d="m496 384h-40v-200a40.04 40.04 0 0 0 -40-40h-120v-72a8 8 0 0 0 -8-8h-64a8 8 0 0 0 -8 8v72h-120a40.04 40.04 0 0 0 -40 40v200h-40a8 8 0 0 0 -8 8v32a40.04 40.04 0 0 0 40 40h416a40.04 40.04 0 0 0 40-40v-32a8 8 0 0 0 -8-8zm-200-200h120v176h-320v-176h120v8h-24a8 8 0 0 0 -5.66 13.66l64 64a8.015 8.015 0 0 0 11.32 0l64-64a8 8 0 0 0 -5.66-13.66h-24zm-72 24a8 8 0 0 0 8-8v-120h48v120a8 8 0 0 0 8 8h12.69l-44.69 44.69-44.69-44.69zm-152-24a24.032 24.032 0 0 1 24-24h120v8h-128a8 8 0 0 0 -8 8v192a8 8 0 0 0 8 8h336a8 8 0 0 0 8-8v-192a8 8 0 0 0 -8-8h-128v-8h120a24.032 24.032 0 0 1 24 24v200h-368zm220.46 216-3 8h-67.69l-2.67-8zm195.54 24a24.032 24.032 0 0 1 -24 24h-416a24.032 24.032 0 0 1 -24-24v-24h178.23l6.18 18.53a8 8 0 0 0 7.59 5.47h79a8.005 8.005 0 0 0 7.49-5.19l7.05-18.81h178.46z"/><path d="m120 408h-80a8 8 0 0 0 0 16h80a8 8 0 0 0 0-16z"/><path d="m152 408h-8a8 8 0 0 0 0 16h8a8 8 0 0 0 0-16z"/><path d="m192 296h128a8 8 0 0 0 0-16h-128a8 8 0 0 0 0 16z"/></g></g></svg>