<svg height="512" viewBox="0 0 48 56" width="512"  xmlns="http://www.w3.org/2000/svg"><g id="Page-1" fill="#07001f" fill-rule="evenodd"><g id="047---Read-Mobile-Message" fill="#07001f" fill-rule="nonzero"><path id="Shape" d="m18.8 37.342 3.2 3.658-.3-2.964c-.0527992-.5351958.3271416-1.016307.86-1.089 1.9698056-.2750171 3.4366857-1.9580914 3.44-3.947v-10c0-2.209139-1.790861-4-4-4h-18c-2.209139 0-4 1.790861-4 4v10c0 2.209139 1.790861 4 4 4h14.05c.287543.0008689.5607972.1254729.75.342zm-6.8-15.342h10c.5522847 0 1 .4477153 1 1s-.4477153 1-1 1h-10c-.5522847 0-1-.4477153-1-1s.4477153-1 1-1zm11 6c0 .5522847-.4477153 1-1 1h-4c-.5522847 0-1-.4477153-1-1s.4477153-1 1-1h4c.5522847 0 1 .4477153 1 1zm-19-6h4c.55228475 0 1 .4477153 1 1s-.44771525 1-1 1h-4c-.55228475 0-1-.4477153-1-1s.44771525-1 1-1zm0 5h10c.5522847 0 1 .4477153 1 1s-.4477153 1-1 1h-10c-.55228475 0-1-.4477153-1-1s.44771525-1 1-1zm4 7h-4c-.55228475 0-1-.4477153-1-1s.44771525-1 1-1h4c.55228475 0 1 .4477153 1 1s-.44771525 1-1 1zm3-1c0-.5522847.4477153-1 1-1h10c.5522847 0 1 .4477153 1 1s-.4477153 1-1 1h-10c-.5522847 0-1-.4477153-1-1z"/><path id="Shape" d="m42.549.028-2.4 4c-.3623472.60162285-1.0126879.97021242-1.715.972h-14.868c-.7017545-.00192524-1.3515912-.37006494-1.714-.971l-2.4-4c-3.0855697.28583109-5.4471525 2.87222345-5.452 5.971v11h8c3.3123376.0033074 5.9966926 2.6876624 6 6v10c-.0064066 2.6240629-1.7142476 4.9407196-4.219 5.723l.2 2.08c.098618.8636402-.3816263 1.6895303-1.181 2.031-.2526939.108874-.5248504.1653464-.8.166-.5752124-.0001783-1.1222097-.2492444-1.5-.683l-2.9-3.317h-3.6v11c.0033074 3.3123376 2.6876624 5.9966926 6 6h22c3.3123376-.0033074 5.9966926-2.6876624 6-6v-44c-.0042837-3.09881071-2.3654451-5.68564905-5.451-5.972zm-15.256 42.265c.3904999-.3903819 1.0235001-.3903819 1.414 0l1.293 1.293 5.293-5.293c.3923789-.3789722 1.0160848-.3735524 1.4018186.0121814s.3911536 1.0094397.0121814 1.4018186l-6 6c-.3904999.3903819-1.0235001.3903819-1.414 0l-2-2c-.3903819-.3904999-.3903819-1.0235001 0-1.414zm13.707 10.707h-20c-.5522847 0-1-.4477153-1-1s.4477153-1 1-1h20c.5522847 0 1 .4477153 1 1s-.4477153 1-1 1zm3.707-13.293-6 6c-.3904999.3903819-1.0235001.3903819-1.414 0l-2-2c-.3789722-.3923789-.3735524-1.0160848.0121814-1.4018186s1.0094397-.3911536 1.4018186-.0121814l1.293 1.293 5.293-5.293c.3923789-.3789722 1.0160848-.3735524 1.4018186.0121814s.3911536 1.0094397.0121814 1.4018186z"/><path id="Shape" d="m38.434 3 1.8-3h-18.468l1.8 3z"/></g></g></svg>