<svg width="54" height="54" viewBox="0 0 54 54" fill="none" xmlns="http://www.w3.org/2000/svg">
<g opacity="0.7">
<path d="M53.8065 27.499C53.8065 12.8614 41.9436 0.998047 27.3065 0.998047C12.6694 0.998047 0.806519 12.8614 0.806519 27.499C0.806519 42.1367 12.6694 54 27.3065 54C27.4618 54 27.6171 54 27.7723 53.9896V33.3686H22.079V26.733H27.7723V21.8469C27.7723 16.1843 31.2298 13.0995 36.2813 13.0995C38.7036 13.0995 40.7843 13.2755 41.3846 13.3583V19.2796H37.9065C35.1634 19.2796 34.6251 20.5839 34.6251 22.499V26.7226H41.1983L40.3391 33.3582H34.6251V52.9752C45.7012 49.7971 53.8065 39.6004 53.8065 27.499Z" fill="white"/>
</g>
</svg>
