<svg width="37" height="37" viewBox="0 0 37 37" fill="none" xmlns="http://www.w3.org/2000/svg">
<g opacity="0.9">
<path fill-rule="evenodd" clip-rule="evenodd" d="M0 18.5C0 8.2828 8.2828 0 18.5 0C28.7124 0.0116141 36.9884 8.28764 37 18.5C37 28.7172 28.7172 37 18.5 37C8.2828 37 0 28.7172 0 18.5ZM27.75 26.4286C28.1149 26.4286 28.4107 26.1327 28.4107 25.7679V11.2321C28.4107 10.8673 28.1149 10.5714 27.75 10.5714H9.25C8.88512 10.5714 8.58929 10.8673 8.58929 11.2321V25.7679C8.58929 26.1327 8.88512 26.4286 9.25 26.4286H27.75ZM25.964 11.8931H11.0359L18.5 18.2909L25.964 11.8931ZM18.5 19.8212C18.3422 19.8212 18.1896 19.7647 18.0699 19.6618L9.91071 12.6682V25.1069H27.0893V12.6682L18.93 19.6618C18.8103 19.7647 18.6577 19.8212 18.5 19.8212Z" fill="white"/>
</g>
</svg>
