<svg width="19" height="22" viewBox="0 0 19 22" fill="none" xmlns="http://www.w3.org/2000/svg">
<path opacity="0.5" d="M9.94061 9.96959C10.9568 9.96959 11.9502 9.70032 12.7951 9.19583C13.6401 8.69134 14.2986 7.97428 14.6875 7.13534C15.0764 6.2964 15.1781 5.37326 14.9799 4.48264C14.7816 3.59203 14.2923 2.77395 13.5737 2.13185C12.8552 1.48976 11.9397 1.05248 10.943 0.875331C9.94631 0.698177 8.91323 0.789099 7.97438 1.1366C7.03553 1.4841 6.23309 2.07257 5.66851 2.82759C5.10394 3.58262 4.8026 4.47029 4.8026 5.37835C4.8026 6.59602 5.34393 7.76382 6.30749 8.62485C7.27105 9.48587 8.57793 9.96959 9.94061 9.96959ZM9.94061 3.08273C10.4487 3.08273 10.9454 3.21737 11.3679 3.46961C11.7903 3.72186 12.1196 4.08039 12.3141 4.49986C12.5085 4.91933 12.5594 5.3809 12.4603 5.8262C12.3611 6.27151 12.1165 6.68055 11.7572 7.0016C11.3979 7.32265 10.9401 7.54128 10.4418 7.62986C9.94346 7.71844 9.42692 7.67298 8.9575 7.49923C8.48807 7.32548 8.08685 7.03124 7.80456 6.65373C7.52228 6.27622 7.37161 5.83238 7.37161 5.37835C7.37161 4.76952 7.64227 4.18561 8.12405 3.7551C8.60583 3.32459 9.25927 3.08273 9.94061 3.08273ZM9.94061 12.2652C7.55591 12.2652 5.26889 13.1117 3.58265 14.6185C1.89641 16.1253 0.949097 18.169 0.949097 20.2999C0.949097 20.6043 1.08443 20.8963 1.32532 21.1115C1.56621 21.3268 1.89293 21.4477 2.2336 21.4477C2.57427 21.4477 2.90099 21.3268 3.14188 21.1115C3.38277 20.8963 3.5181 20.6043 3.5181 20.2999C3.5181 18.7778 4.19476 17.318 5.39921 16.2418C6.60367 15.1655 8.23726 14.5608 9.94061 14.5608C11.644 14.5608 13.2776 15.1655 14.482 16.2418C15.6865 17.318 16.3631 18.7778 16.3631 20.2999C16.3631 20.6043 16.4985 20.8963 16.7393 21.1115C16.9802 21.3268 17.307 21.4477 17.6476 21.4477C17.9883 21.4477 18.315 21.3268 18.5559 21.1115C18.7968 20.8963 18.9321 20.6043 18.9321 20.2999C18.9321 18.169 17.9848 16.1253 16.2986 14.6185C14.6123 13.1117 12.3253 12.2652 9.94061 12.2652V12.2652Z" fill="#9399A8"/>
</svg>
