<svg width="37" height="37" viewBox="0 0 37 37" fill="none" xmlns="http://www.w3.org/2000/svg">
<g opacity="0.9">
<path fill-rule="evenodd" clip-rule="evenodd" d="M0 18.4999C0 8.28296 8.28271 0 18.4997 0C28.7167 0 37 8.28296 37 18.4999C37 28.7167 28.7167 37.0003 18.4997 37.0003C8.28271 37.0003 0 28.7167 0 18.4999ZM18.5001 8.4692C18.4872 8.46981 18.4744 8.47043 18.4613 8.47043C15.3444 8.51976 12.8084 11.096 12.8085 14.2139C12.8085 17.7671 16.3464 21.361 18.1377 22.9527C18.1396 22.9546 18.1415 22.9562 18.1437 22.9581C18.272 23.0724 18.3919 23.1766 18.5001 23.2691C20.1187 21.886 24.1917 18.026 24.1917 14.2139C24.1917 11.096 21.656 8.51964 18.5388 8.47043C18.5257 8.47043 18.5132 8.46982 18.5005 8.46922L18.5001 8.4692ZM11.7144 25.7958C11.7144 27.6659 15.1685 28.6446 18.5804 28.6446C21.9924 28.6446 25.4466 27.6659 25.4466 25.7958C25.4466 24.4562 23.6753 23.5747 21.4167 23.1815C20.9893 23.6123 20.5847 23.9917 20.2293 24.309C22.7046 24.561 24.1671 25.3362 24.1671 25.7955C24.1671 26.3485 22.046 27.3648 18.5804 27.3648C15.1148 27.3648 12.994 26.3485 12.994 25.7955C12.994 25.3454 14.3973 24.5893 16.7858 24.3225C16.4336 24.0087 16.0321 23.6328 15.608 23.2064C13.4152 23.6107 11.7144 24.4834 11.7144 25.7958ZM21.5325 13.6372C21.5325 15.2821 20.199 16.6156 18.5541 16.6156C16.9091 16.6156 15.5757 15.2821 15.5757 13.6372C15.5757 11.9922 16.9091 10.6588 18.5541 10.6588C20.199 10.6588 21.5325 11.9922 21.5325 13.6372Z" fill="white"/>
</g>
</svg>
