<svg width="21" height="18" viewBox="0 0 21 18" fill="none" xmlns="http://www.w3.org/2000/svg">
<path d="M18.0649 9.64801V14.4305C18.0649 14.9566 17.5832 15.387 16.9944 15.387H4.14947C3.56075 15.387 3.07906 14.9566 3.07906 14.4305V9.64801C3.07906 9.12194 2.59737 8.69151 2.00865 8.69151C1.41992 8.69151 0.938232 9.12194 0.938232 9.64801V15.387C0.938232 16.4392 1.90161 17.3 3.07906 17.3H18.0649C19.2423 17.3 20.2057 16.4392 20.2057 15.387V9.64801C20.2057 9.12194 19.724 8.69151 19.1353 8.69151C18.5465 8.69151 18.0649 9.12194 18.0649 9.64801ZM11.6424 9.33237L13.6548 7.53415C13.7539 7.44559 13.8715 7.37535 14.001 7.32742C14.1305 7.2795 14.2692 7.25483 14.4094 7.25483C14.5495 7.25483 14.6883 7.2795 14.8178 7.32742C14.9473 7.37535 15.0649 7.44559 15.164 7.53415C15.2631 7.6227 15.3417 7.72783 15.3954 7.84353C15.449 7.95924 15.4766 8.08325 15.4766 8.20848C15.4766 8.33372 15.449 8.45772 15.3954 8.57343C15.3417 8.68913 15.2631 8.79426 15.164 8.88281L11.3212 12.3167C11.2222 12.4053 11.1046 12.4757 10.9751 12.5237C10.8456 12.5717 10.7068 12.5964 10.5666 12.5964C10.4264 12.5964 10.2876 12.5717 10.1581 12.5237C10.0286 12.4757 9.91099 12.4053 9.81197 12.3167L5.96918 8.88281C5.76904 8.70397 5.6566 8.4614 5.6566 8.20848C5.6566 7.95556 5.76904 7.71299 5.96918 7.53415C6.16932 7.3553 6.44078 7.25483 6.72382 7.25483C7.00687 7.25483 7.27832 7.3553 7.47846 7.53415L9.50155 9.33237V1.03951C9.50155 0.513433 9.98323 0.0830078 10.572 0.0830078C11.1607 0.0830078 11.6424 0.513433 11.6424 1.03951V9.33237Z" fill="white"/>
</svg>
