<svg width="25" height="25" viewBox="0 0 25 25" fill="none" xmlns="http://www.w3.org/2000/svg">
<path d="M24.7855 9.12706C23.832 8.17377 22.6531 7.52756 21.3688 7.23878C21.5266 7.10622 21.6795 6.96679 21.827 6.81936C23.1556 5.49069 23.8873 3.72411 23.8873 1.84517C23.8873 1.44062 23.5594 1.11275 23.1549 1.11275C20.9917 1.11275 19.0537 2.09446 17.7622 3.63541C17.474 2.34967 16.8274 1.16902 15.873 0.214577C15.7355 0.077057 15.5493 0 15.3549 0C15.1608 0 14.9744 0.077057 14.8371 0.214577C13.8136 1.23806 13.1447 2.52152 12.8912 3.91579C12.781 3.78838 12.6656 3.66383 12.5447 3.54291C12.4073 3.40558 12.221 3.32833 12.0266 3.32833C11.8325 3.32833 11.6459 3.40558 11.5086 3.5431C10.4609 4.591 9.8139 5.8899 9.56652 7.24794C9.45475 7.119 9.33802 6.99331 9.21614 6.87143C8.93003 6.58532 8.46636 6.58532 8.18044 6.87143C5.61238 9.4393 5.44892 13.5147 7.6893 16.2749L0.214577 23.7498C-0.0715257 24.0357 -0.0715257 24.4996 0.214577 24.7855C0.357629 24.9285 0.544931 25 0.732423 25C0.919916 25 1.10722 24.9285 1.25027 24.7855L8.7248 17.3109C9.97412 18.3272 11.5216 18.8799 13.1542 18.8801H13.155C15.0336 18.8801 16.8 18.1485 18.1286 16.8198C18.2659 16.6825 18.3432 16.4959 18.3432 16.3018C18.3432 16.1074 18.2659 15.9211 18.1286 15.7839C18.0081 15.6632 17.8837 15.5476 17.7561 15.437C19.1504 15.1835 20.4337 14.5146 21.4571 13.4913C21.5945 13.3539 21.6715 13.1676 21.6715 12.9734C21.6715 12.7791 21.5945 12.5929 21.4571 12.4556C21.3364 12.3348 21.2122 12.2193 21.0846 12.1086C22.4743 11.8559 23.7538 11.1906 24.7756 10.1727C24.8469 10.1042 24.9049 10.0205 24.9442 9.92529C25.0576 9.65158 24.9949 9.33668 24.7855 9.12706ZM22.3675 2.6331C22.2002 3.82195 21.6551 4.91982 20.7911 5.78366C20.0385 6.53611 19.1084 7.04671 18.0952 7.27636C18.0939 7.27655 18.0928 7.27693 18.0914 7.27731C17.9428 7.31088 17.7924 7.33854 17.6405 7.3599C17.9875 4.91754 19.9252 2.98024 22.3675 2.6331ZM15.3549 1.84574C16.0776 2.80495 16.4685 3.96672 16.4685 5.18876C16.4685 6.41061 16.0775 7.57257 15.3549 8.53159C14.6324 7.57276 14.2414 6.4108 14.2414 5.18876C14.2414 3.96691 14.6324 2.80476 15.3549 1.84574ZM12.0266 5.17503C13.5077 7.14742 13.5075 9.88695 12.0264 11.8592C10.5456 9.88695 10.5456 7.14742 12.0266 5.17503ZM8.69829 8.50259C9.42079 9.46161 9.8118 10.6236 9.8118 11.8454C9.8118 13.0675 9.42079 14.2294 8.69829 15.1884C7.97559 14.2294 7.58478 13.0675 7.58478 11.8456C7.58478 10.6236 7.97559 9.46161 8.69829 8.50259ZM13.155 17.4153C13.1548 17.4153 13.1546 17.4153 13.1544 17.4153C11.9324 17.4151 10.7704 17.0243 9.81161 16.3018C10.7706 15.5793 11.9326 15.1882 13.1546 15.1882C14.3765 15.1882 15.5384 15.5791 16.4975 16.3018C15.5384 17.0245 14.3767 17.4153 13.155 17.4153ZM16.4828 14.0869C15.2609 14.0869 14.099 13.6959 13.1399 12.9734C14.0991 12.2509 15.2611 11.8599 16.4831 11.8599C17.705 11.8599 18.867 12.2507 19.8258 12.9732C18.8666 13.6959 17.7048 14.0869 16.4828 14.0869ZM19.8113 10.7586C18.5892 10.7586 17.4273 10.3676 16.4683 9.64491C17.0651 9.19534 17.7407 8.87434 18.4601 8.69581C18.4712 8.69314 18.4822 8.69066 18.4935 8.68799C18.9198 8.58499 19.3615 8.53159 19.8113 8.53159C21.0333 8.53159 22.1951 8.9224 23.1541 9.64491C22.1951 10.3676 21.0331 10.7586 19.8113 10.7586Z" fill="white"/>
</svg>
