<svg width="196" height="196" viewBox="0 0 196 196" fill="none" xmlns="http://www.w3.org/2000/svg">
<g filter="url(#filter0_d)">
<circle cx="98" cy="98" r="68" stroke="white" stroke-width="20" stroke-linecap="round"/>
</g>
<path d="M98 20C108.243 20 118.386 22.0175 127.849 25.9374C137.313 29.8573 145.911 35.6027 153.154 42.8457C160.397 50.0886 166.143 58.6873 170.063 68.1507C173.982 77.6141 176 87.7569 176 98C176 108.243 173.982 118.386 170.063 127.849C166.143 137.313 160.397 145.911 153.154 153.154C145.911 160.397 137.313 166.143 127.849 170.063C118.386 173.982 108.243 176 98 176L98 154.384C105.404 154.384 112.736 152.925 119.577 150.092C126.418 147.258 132.634 143.105 137.869 137.869C143.105 132.634 147.258 126.418 150.092 119.577C152.925 112.736 154.384 105.404 154.384 98C154.384 90.5956 152.925 83.2637 150.092 76.4229C147.258 69.5821 143.105 63.3664 137.869 58.1307C132.634 52.895 126.418 48.7418 119.577 45.9083C112.736 43.0747 105.404 41.6163 98 41.6163L98 20Z" fill="#FBBE47"/>
<path d="M98 20C108.243 20 118.386 22.0175 127.849 25.9374C137.313 29.8573 145.911 35.6027 153.154 42.8457C160.397 50.0886 166.143 58.6873 170.063 68.1507C173.982 77.6141 176 87.7569 176 98C176 108.243 173.982 118.386 170.063 127.849C166.143 137.313 160.397 145.911 153.154 153.154C145.911 160.397 137.313 166.143 127.849 170.063C118.386 173.982 108.243 176 98 176L98 154.384C105.404 154.384 112.736 152.925 119.577 150.092C126.418 147.258 132.634 143.105 137.869 137.869C143.105 132.634 147.258 126.418 150.092 119.577C152.925 112.736 154.384 105.404 154.384 98C154.384 90.5956 152.925 83.2637 150.092 76.4229C147.258 69.5821 143.105 63.3664 137.869 58.1307C132.634 52.895 126.418 48.7418 119.577 45.9083C112.736 43.0747 105.404 41.6163 98 41.6163L98 20Z" fill="url(#paint0_linear)"/>
<path d="M79.4658 77.3463V94.2694C79.4658 95.4539 80.3713 96.3848 81.524 96.3848H114.812L122.963 93.5923V75.231H81.524C80.3713 75.231 79.4658 76.1616 79.4658 77.3463Z" fill="#C3EA21"/>
<path d="M79.4657 77.3463V94.2694C79.4657 95.4539 80.3712 96.3848 81.5239 96.3848H98.1268V75.231H81.5239C80.3712 75.231 79.4657 76.1616 79.4657 77.3463Z" fill="#9CDD05"/>
<path d="M98.1269 104.846H114.73C115.867 104.846 116.788 105.792 116.788 106.962V123.885C116.788 125.054 115.867 126 114.73 126H98.1269H81.5239L73.2911 123.7V104.846H98.1269Z" fill="#FED843"/>
<path d="M73.2911 123.7V104.846H98.1268V126H81.5239L73.2911 123.7Z" fill="#FABE2C"/>
<path d="M89.8941 117.538C88.7573 117.538 87.8358 116.591 87.8358 115.423C87.8358 114.255 88.7573 113.308 89.8941 113.308C91.0308 113.308 91.9523 114.255 91.9523 115.423C91.9523 116.591 91.0308 117.538 89.8941 117.538Z" fill="#DFE7F4"/>
<path d="M98.1268 117.538C96.9901 117.538 96.0686 116.591 96.0686 115.423C96.0686 114.255 96.9901 113.308 98.1268 113.308C99.2636 113.308 100.185 114.255 100.185 115.423C100.185 116.591 99.2636 117.538 98.1268 117.538Z" fill="#F0F7FF"/>
<path d="M106.36 117.538C105.223 117.538 104.302 116.591 104.302 115.423C104.302 114.255 105.223 113.308 106.36 113.308C107.496 113.308 108.418 114.255 108.418 115.423C108.418 116.591 107.496 117.538 106.36 117.538Z" fill="#F0F7FF"/>
<path d="M106.36 87.9227C105.223 87.9227 104.302 86.9756 104.302 85.8073C104.302 84.639 105.223 83.6919 106.36 83.6919C107.496 83.6919 108.418 84.639 108.418 85.8073C108.418 86.9756 107.496 87.9227 106.36 87.9227Z" fill="#F0F7FF"/>
<path d="M98.1268 87.9231C96.9901 87.9231 96.0686 86.9761 96.0686 85.8078C96.0686 84.6395 96.9901 83.6924 98.1268 83.6924C99.2636 83.6924 100.185 84.6395 100.185 85.8078C100.185 86.9761 99.2636 87.9231 98.1268 87.9231Z" fill="#F0F7FF"/>
<path d="M89.8941 87.9227C88.7573 87.9227 87.8358 86.9756 87.8358 85.8073C87.8358 84.639 88.7573 83.6919 89.8941 83.6919C91.0308 83.6919 91.9523 84.639 91.9523 85.8073C91.9523 86.9756 91.0308 87.9227 89.8941 87.9227Z" fill="#DFE7F4"/>
<path d="M73.2911 113.308C69.8809 113.308 67.1164 110.466 67.1164 106.961C67.1164 103.457 69.8809 100.615 73.2911 100.615C76.7012 100.615 79.4657 103.457 79.4657 106.961C79.4657 110.466 76.7012 113.308 73.2911 113.308Z" fill="#FFE1BA"/>
<path d="M67.1165 106.961C67.1165 103.462 69.8863 100.615 73.2911 100.615V113.308C69.8863 113.308 67.1165 110.461 67.1165 106.961Z" fill="#FFBFAB"/>
<path d="M73.291 113.308C78.9652 113.308 83.582 118.053 83.582 123.885C83.582 125.054 82.6615 126 81.5238 126H73.291H65.0581C63.9205 126 62.9999 125.054 62.9999 123.885C62.9999 118.053 67.6168 113.308 73.291 113.308Z" fill="#FF641A"/>
<path d="M63.0001 123.885C63.0001 118.053 67.6169 113.308 73.2911 113.308V126H65.0583C63.9207 126 63.0001 125.054 63.0001 123.885Z" fill="#F03800"/>
<path d="M96.0686 115.423C96.0686 116.607 96.9741 117.538 98.1268 117.538V113.308C96.9741 113.308 96.0686 114.238 96.0686 115.423Z" fill="#DFE7F4"/>
<path d="M122.963 83.6923C119.552 83.6923 116.788 80.851 116.788 77.3461C116.788 73.8413 119.552 71 122.963 71C126.373 71 129.137 73.8413 129.137 77.3461C129.137 80.851 126.373 83.6923 122.963 83.6923Z" fill="#FFE1BA"/>
<path d="M116.788 77.3461C116.788 73.8467 119.558 71 122.963 71V83.6923C119.558 83.6923 116.788 80.8456 116.788 77.3461Z" fill="#FFBFAB"/>
<path d="M122.963 83.6924C128.637 83.6924 133.254 88.4375 133.254 94.2693C133.254 95.4385 132.333 96.3847 131.195 96.3847H122.963H114.73C113.592 96.3847 112.672 95.4385 112.672 94.2693C112.672 88.4375 117.288 83.6924 122.963 83.6924Z" fill="#979FEF"/>
<path d="M112.672 94.2693C112.672 88.4375 117.288 83.6924 122.963 83.6924V96.3847H114.73C113.592 96.3847 112.672 95.4385 112.672 94.2693Z" fill="#6B77E8"/>
<path d="M96.0686 85.8078C96.0686 86.9922 96.9741 87.9231 98.1268 87.9231V83.6924C96.9741 83.6924 96.0686 84.623 96.0686 85.8078Z" fill="#DFE7F4"/>
<defs>
<filter id="filter0_d" x="0" y="0" width="196" height="196" filterUnits="userSpaceOnUse" color-interpolation-filters="sRGB">
<feFlood flood-opacity="0" result="BackgroundImageFix"/>
<feColorMatrix in="SourceAlpha" type="matrix" values="0 0 0 0 0 0 0 0 0 0 0 0 0 0 0 0 0 0 127 0"/>
<feOffset/>
<feGaussianBlur stdDeviation="10"/>
<feColorMatrix type="matrix" values="0 0 0 0 0.376471 0 0 0 0 0.376471 0 0 0 0 0.376471 0 0 0 0.15 0"/>
<feBlend mode="normal" in2="BackgroundImageFix" result="effect1_dropShadow"/>
<feBlend mode="normal" in="SourceGraphic" in2="effect1_dropShadow" result="shape"/>
</filter>
<linearGradient id="paint0_linear" x1="98" y1="20" x2="98" y2="155.379" gradientUnits="userSpaceOnUse">
<stop stop-color="#FBBE47"/>
<stop offset="1" stop-color="#FF7612"/>
</linearGradient>
</defs>
</svg>
