<svg width="196" height="196" viewBox="0 0 196 196" fill="none" xmlns="http://www.w3.org/2000/svg">
<g filter="url(#filter0_d)">
<circle cx="98" cy="98" r="68" stroke="white" stroke-width="20" stroke-linecap="round"/>
</g>
<path d="M98 20C111.692 20 125.143 23.6041 137 30.45C148.858 37.2959 158.704 47.1425 165.55 59C172.396 70.8575 176 84.3081 176 98C176 111.692 172.396 125.143 165.55 137C158.704 148.858 148.857 158.704 137 165.55C125.142 172.396 111.692 176 98 176C84.3081 176 70.8575 172.396 59 165.55C47.1425 158.704 37.2959 148.857 30.45 137L49.1471 126.205C54.0982 134.781 61.2193 141.902 69.7948 146.853C78.3703 151.804 88.0979 154.41 98 154.41C107.902 154.41 117.63 151.804 126.205 146.853C134.781 141.902 141.902 134.781 146.853 126.205C151.804 117.63 154.41 107.902 154.41 98C154.41 88.0979 151.804 78.3703 146.853 69.7948C141.902 61.2193 134.781 54.0982 126.205 49.1471C117.63 44.1961 107.902 41.5896 98 41.5896L98 20Z" fill="#FBBE47"/>
<path d="M98 20C111.692 20 125.143 23.6041 137 30.45C148.858 37.2959 158.704 47.1425 165.55 59C172.396 70.8575 176 84.3081 176 98C176 111.692 172.396 125.143 165.55 137C158.704 148.858 148.857 158.704 137 165.55C125.142 172.396 111.692 176 98 176C84.3081 176 70.8575 172.396 59 165.55C47.1425 158.704 37.2959 148.857 30.45 137L49.1471 126.205C54.0982 134.781 61.2193 141.902 69.7948 146.853C78.3703 151.804 88.0979 154.41 98 154.41C107.902 154.41 117.63 151.804 126.205 146.853C134.781 141.902 141.902 134.781 146.853 126.205C151.804 117.63 154.41 107.902 154.41 98C154.41 88.0979 151.804 78.3703 146.853 69.7948C141.902 61.2193 134.781 54.0982 126.205 49.1471C117.63 44.1961 107.902 41.5896 98 41.5896L98 20Z" fill="url(#paint0_linear)"/>
<path d="M72.5742 71.7871H126.426V100.619H72.5742V71.7871Z" fill="#F0F7FF"/>
<path d="M99.5 71.7871H126.426V100.619H99.5V71.7871Z" fill="#DFE7F4"/>
<path d="M99.5 77.1484C96.5333 77.1484 94.1387 79.543 94.1387 82.5098C94.1387 85.4762 96.5333 87.8711 99.5 87.8711C102.467 87.8711 104.861 85.4762 104.861 82.5098C104.861 79.543 102.467 77.1484 99.5 77.1484Z" fill="#FFE1BA"/>
<path d="M108.436 96.9258V100.619H90.5645V96.9258C90.5645 91.9934 94.5676 87.8711 99.5 87.8711C104.432 87.8711 108.436 91.9934 108.436 96.9258Z" fill="#FF641A"/>
<path d="M130 100.619C130 101.62 129.214 102.406 128.213 102.406H70.7871C69.7862 102.406 69 101.62 69 100.619C69 99.6182 69.7862 98.832 70.7871 98.832H128.213C129.214 98.832 130 99.6182 130 100.619Z" fill="#613D5C"/>
<path d="M130 71.7871C130 72.7878 129.214 73.5742 128.213 73.5742H70.7871C69.7862 73.5742 69 72.7878 69 71.7871C69 70.7862 69.7862 70 70.7871 70H128.213C129.214 70 130 70.7862 130 71.7871Z" fill="#613D5C"/>
<path d="M81.6289 116.703C84.5899 116.703 86.9902 114.303 86.9902 111.342C86.9902 108.381 84.5899 105.98 81.6289 105.98C78.6679 105.98 76.2676 108.381 76.2676 111.342C76.2676 114.303 78.6679 116.703 81.6289 116.703Z" fill="#613D5C"/>
<path d="M86.9902 111.342C86.9902 108.385 84.5853 105.98 81.6289 105.98V116.703C84.5853 116.703 86.9902 114.298 86.9902 111.342Z" fill="#4B2746"/>
<path d="M81.6289 116.703C76.7021 116.703 72.6934 120.712 72.6934 125.639C72.6934 126.626 73.4927 127.426 74.4805 127.426H81.6289H88.7773C89.7651 127.426 90.5645 126.626 90.5645 125.639C90.5645 120.712 86.5557 116.703 81.6289 116.703Z" fill="#979FEF"/>
<path d="M90.5645 125.639C90.5645 120.712 86.5557 116.703 81.6289 116.703V127.426H88.7773C89.7651 127.426 90.5645 126.626 90.5645 125.639Z" fill="#6B77E8"/>
<path d="M117.371 116.703C120.332 116.703 122.732 114.303 122.732 111.342C122.732 108.381 120.332 105.98 117.371 105.98C114.41 105.98 112.01 108.381 112.01 111.342C112.01 114.303 114.41 116.703 117.371 116.703Z" fill="#613D5C"/>
<path d="M122.732 111.342C122.732 108.385 120.327 105.98 117.371 105.98V116.703C120.327 116.703 122.732 114.298 122.732 111.342Z" fill="#4B2746"/>
<path d="M117.371 116.703C112.444 116.703 108.436 120.712 108.436 125.639C108.436 126.626 109.235 127.426 110.223 127.426H117.371H124.52C125.507 127.426 126.307 126.626 126.307 125.639C126.307 120.712 122.298 116.703 117.371 116.703Z" fill="#979FEF"/>
<path d="M126.307 125.639C126.307 120.712 122.298 116.703 117.371 116.703V127.426H124.52C125.507 127.426 126.307 126.626 126.307 125.639Z" fill="#6B77E8"/>
<path d="M99.5 120.277C102.461 120.277 104.861 117.877 104.861 114.916C104.861 111.955 102.461 109.555 99.5 109.555C96.539 109.555 94.1387 111.955 94.1387 114.916C94.1387 117.877 96.539 120.277 99.5 120.277Z" fill="#613D5C"/>
<path d="M104.861 114.916C104.861 111.96 102.456 109.555 99.5 109.555V120.277C102.456 120.277 104.861 117.872 104.861 114.916Z" fill="#4B2746"/>
<path d="M99.5 120.277C94.5732 120.277 90.5645 124.286 90.5645 129.213C90.5645 130.201 91.3638 131 92.3516 131H99.5H106.648C107.636 131 108.436 130.201 108.436 129.213C108.436 124.286 104.427 120.277 99.5 120.277Z" fill="#979FEF"/>
<path d="M108.436 129.213C108.436 124.286 104.427 120.277 99.5 120.277V131H106.648C107.636 131 108.436 130.201 108.436 129.213Z" fill="#6B77E8"/>
<path d="M99.5 87.8711V77.1484C102.467 77.1484 104.861 79.543 104.861 82.5098C104.861 85.4762 102.467 87.8711 99.5 87.8711Z" fill="#FFBFAB"/>
<path d="M108.436 96.9258V100.619H99.5V87.8711C104.432 87.8711 108.436 91.9934 108.436 96.9258Z" fill="#F03800"/>
<path d="M130 71.7871C130 72.7878 129.214 73.5742 128.213 73.5742H99.5V70H128.213C129.214 70 130 70.7862 130 71.7871Z" fill="#4B2746"/>
<path d="M130 100.619C130 101.62 129.214 102.406 128.213 102.406H99.5V98.832H128.213C129.214 98.832 130 99.6182 130 100.619Z" fill="#4B2746"/>
<defs>
<filter id="filter0_d" x="0" y="0" width="196" height="196" filterUnits="userSpaceOnUse" color-interpolation-filters="sRGB">
<feFlood flood-opacity="0" result="BackgroundImageFix"/>
<feColorMatrix in="SourceAlpha" type="matrix" values="0 0 0 0 0 0 0 0 0 0 0 0 0 0 0 0 0 0 127 0"/>
<feOffset/>
<feGaussianBlur stdDeviation="10"/>
<feColorMatrix type="matrix" values="0 0 0 0 0.376471 0 0 0 0 0.376471 0 0 0 0 0.376471 0 0 0 0.15 0"/>
<feBlend mode="normal" in2="BackgroundImageFix" result="effect1_dropShadow"/>
<feBlend mode="normal" in="SourceGraphic" in2="effect1_dropShadow" result="shape"/>
</filter>
<linearGradient id="paint0_linear" x1="98" y1="20" x2="98" y2="155.379" gradientUnits="userSpaceOnUse">
<stop stop-color="#FBBE47"/>
<stop offset="1" stop-color="#FF7612"/>
</linearGradient>
</defs>
</svg>
