<svg width="37" height="37" viewBox="0 0 37 37" fill="none" xmlns="http://www.w3.org/2000/svg">
<g opacity="0.9">
<path d="M21.8255 21.313L20.4108 24.022C20.256 24.3188 19.904 24.453 19.5908 24.3346C16.3965 23.1254 13.8753 20.6036 12.6671 17.409C12.5487 17.0958 12.6829 16.7438 12.9797 16.589L15.6887 15.1749L14.8344 10.3348C13.8114 9.75889 12.5597 9.76953 11.5464 10.3622C10.533 10.9548 9.91038 12.0407 9.91071 13.2147C9.91942 20.8739 16.1265 27.081 23.7857 27.0897C24.9591 27.0897 26.0447 26.4674 26.6373 25.4544C27.2299 24.4417 27.2409 23.1903 26.6657 22.1673L21.8255 21.313Z" fill="white"/>
<path d="M18.5 0C8.2828 0 0 8.2828 0 18.5C0 28.7172 8.2828 37 18.5 37C28.7172 37 37 28.7172 37 18.5C36.9884 8.28764 28.7124 0.0116141 18.5 0ZM23.7857 28.4107C15.3968 28.4014 8.59864 21.6032 8.58929 13.2143C8.58961 11.5038 9.5339 9.93297 11.0444 9.13031C12.5552 8.32797 14.3854 8.42475 15.8029 9.38227C15.9513 9.48228 16.0526 9.63843 16.0836 9.8149L17.0747 15.4223C17.1247 15.7062 16.9853 15.9894 16.7298 16.1227L14.1266 17.4825C15.1913 19.8892 17.114 21.8129 19.5201 22.8785L20.8786 20.2721C21.0119 20.0166 21.2951 19.8772 21.579 19.9272L27.187 20.9183C27.3632 20.9493 27.519 21.0503 27.619 21.1983C28.5759 22.6159 28.6724 24.4461 27.8697 25.9563C27.0667 27.4667 25.4962 28.4107 23.7857 28.4107Z" fill="white"/>
</g>
</svg>
