<svg width="21" height="19" viewBox="0 0 21 19" fill="none" xmlns="http://www.w3.org/2000/svg">
<path opacity="0.5" d="M1 3.24566C1 2.75724 1.22239 2.28882 1.61824 1.94345C2.0141 1.59808 2.55099 1.40405 3.11082 1.40405H6.57256C6.79397 1.4042 7.00973 1.4651 7.18929 1.57813C7.36885 1.69116 7.50311 1.8506 7.57308 2.03388L9.15408 6.17105C9.23419 6.38131 9.22472 6.60972 9.1274 6.81437C9.03008 7.01902 8.85145 7.1862 8.62427 7.28523L6.24221 8.32573C7.40983 10.5804 9.47964 12.3862 12.0638 13.4049L13.2565 11.3266C13.37 11.1284 13.5616 10.9726 13.7961 10.8877C14.0307 10.8028 14.2925 10.7945 14.5335 10.8644L19.2754 12.2438C19.4857 12.3048 19.6686 12.4221 19.7981 12.579C19.9277 12.7358 19.9974 12.9243 19.9973 13.1176V16.1369C19.9973 16.6253 19.775 17.0938 19.3791 17.4391C18.9832 17.7845 18.4464 17.9785 17.8865 17.9785H16.8311C8.08812 17.9785 1 11.7944 1 4.16646V3.24566Z" stroke="#9399A8" stroke-width="2" stroke-linecap="round" stroke-linejoin="round"/>
</svg>
