<svg width="53" height="54" viewBox="0 0 53 54" fill="none" xmlns="http://www.w3.org/2000/svg">
<g opacity="0.7">
<path d="M26.5 54C41.139 54 53 42.1386 53 27.499C53 12.8594 41.139 0.998047 26.5 0.998047C11.861 0.998047 0 12.8594 0 27.499C0 42.1386 11.861 54 26.5 54ZM12.126 26.9248L37.6764 17.0731C38.8623 16.6447 39.898 17.3624 39.5137 19.1556L39.5159 19.1534L35.1655 39.6497C34.8431 41.1029 33.9796 41.4562 32.7717 40.7716L26.1467 35.8888L22.9512 38.9673C22.5979 39.3207 22.2997 39.6188 21.6152 39.6188L22.0855 32.8765L34.3639 21.7836C34.8983 21.3133 34.2446 21.0482 33.5402 21.5164L18.3667 31.07L11.8256 29.0295C10.4057 28.5789 10.3748 27.6094 12.126 26.9248Z" fill="white"/>
</g>
</svg>
