<svg width="27" height="24" viewBox="0 0 27 24" fill="none" xmlns="http://www.w3.org/2000/svg">
<g opacity="0.5">
<path d="M13.1647 0.787109C6.07428 0.787109 0.319702 5.92926 0.319702 12.2651C0.319702 18.601 6.07428 23.7431 13.1647 23.7431H19.5873V21.4475H13.1647C7.58999 21.4475 2.88871 17.2466 2.88871 12.2651C2.88871 7.28366 7.58999 3.08271 13.1647 3.08271C18.7395 3.08271 23.4408 7.28366 23.4408 12.2651V13.9065C23.4408 14.8132 22.5288 15.7085 21.514 15.7085C20.4992 15.7085 19.5873 14.8132 19.5873 13.9065V12.2651C19.5873 9.09719 16.71 6.52611 13.1647 6.52611C9.61951 6.52611 6.74222 9.09719 6.74222 12.2651C6.74222 15.433 9.61951 18.0041 13.1647 18.0041C14.9373 18.0041 16.5558 17.3614 17.7119 16.3169C18.5468 17.3384 19.9854 18.0041 21.514 18.0041C24.0445 18.0041 26.0098 16.1676 26.0098 13.9065V12.2651C26.0098 5.92926 20.2552 0.787109 13.1647 0.787109V0.787109ZM13.1647 15.7085C11.0325 15.7085 9.31122 14.1705 9.31122 12.2651C9.31122 10.3598 11.0325 8.82171 13.1647 8.82171C15.297 8.82171 17.0182 10.3598 17.0182 12.2651C17.0182 14.1705 15.297 15.7085 13.1647 15.7085Z" fill="#9399A8"/>
</g>
</svg>
