<svg width="37" height="37" viewBox="0 0 37 37" fill="none" xmlns="http://www.w3.org/2000/svg">
<g opacity="0.9">
<path fill-rule="evenodd" clip-rule="evenodd" d="M18.4996 37C8.28261 37 0 28.7168 0 18.5004C0 8.28393 8.28261 0 18.4996 0C28.7166 0 37 8.28344 37 18.5004C37 28.7173 28.7168 37 18.4996 37ZM18.5 7.34302C12.348 7.34302 7.3428 12.3478 7.3428 18.5C7.3428 24.6522 12.348 29.657 18.5 29.657C24.652 29.657 29.6572 24.6522 29.6572 18.5C29.6572 12.3478 24.652 7.34302 18.5 7.34302ZM14.8507 24.2148C15.794 23.98 16.8081 23.835 17.8599 23.7868V27.7133C17.6746 27.7004 17.4914 27.6822 17.3093 27.6585C16.3261 27.0623 15.4649 25.8318 14.8507 24.2148ZM24.9264 25.1274C24.2389 25.794 23.4488 26.3555 22.5817 26.7847C23.0004 26.1484 23.3689 25.4121 23.6753 24.5909C24.1152 24.7487 24.5333 24.9281 24.9264 25.1274ZM13.8876 19.1402H17.8599V22.506C16.6728 22.5575 15.525 22.7248 14.4557 22.9979C14.1355 21.8285 13.935 20.5189 13.8876 19.1402ZM17.8599 14.8299C16.6466 14.7761 15.471 14.5993 14.378 14.3126C14.1042 15.4019 13.9321 16.6021 13.8879 17.8604H17.8599V14.8299ZM14.8466 10.017C13.7587 10.4875 12.7782 11.1601 11.9536 11.9889C12.4297 12.2599 12.951 12.4995 13.5095 12.7055C13.8674 11.6765 14.3197 10.7687 14.8466 10.017ZM14.8354 26.978C13.8464 26.5486 12.9475 25.9512 12.1731 25.2218C12.6187 24.9829 13.1007 24.773 13.6107 24.5897C13.9486 25.496 14.3623 26.2995 14.8354 26.978ZM11.2834 24.2572C11.8755 23.9165 12.5252 23.6213 13.2206 23.3743C12.8689 22.0939 12.6531 20.6641 12.6062 19.1398H9.2867C9.41941 21.067 10.1449 22.833 11.2834 24.2572ZM12.6065 17.8604H9.28681C9.41224 16.0362 10.0673 14.3549 11.1024 12.9731C11.7185 13.3432 12.4038 13.665 13.1427 13.9318C12.8381 15.1326 12.6507 16.4562 12.6065 17.8604ZM17.8599 9.28694C17.6827 9.29915 17.507 9.31679 17.3328 9.33849C16.2809 9.96453 15.3678 11.316 14.7442 13.0899C15.7189 13.3413 16.7707 13.4974 17.8599 13.5486V9.28694ZM24.1446 13.9366C24.8026 13.6983 25.4196 13.4171 25.9839 13.0934C26.9681 14.4523 27.5913 16.0878 27.7132 17.8598H24.6797C24.6357 16.4579 24.4489 15.1358 24.1446 13.9366ZM25.144 12.0915C24.4047 11.3255 23.5359 10.6864 22.5714 10.2107C23.0413 10.9221 23.4476 11.7618 23.7755 12.7025C24.2614 12.524 24.7198 12.3195 25.144 12.0915ZM19.1395 27.7133C19.4536 27.6914 19.7636 27.6543 20.0687 27.6019C21.0129 26.9861 21.8392 25.7827 22.4339 24.218C21.4029 23.9608 20.2907 23.8083 19.1395 23.7744V27.7133ZM24.065 23.3752C24.4173 22.0947 24.6329 20.6642 24.6798 19.1396H27.7129C27.584 21.0176 26.8918 22.7421 25.8032 24.1464C25.2654 23.8531 24.6839 23.5946 24.065 23.3752ZM20.0482 9.39492C19.7499 9.34473 19.4466 9.30834 19.1395 9.2875V13.5612C20.3266 13.5255 21.4788 13.3627 22.5411 13.0885C21.9361 11.3685 21.0597 10.0439 20.0482 9.39492ZM22.8293 23.0009C21.6719 22.7047 20.4251 22.5307 19.1395 22.4949V19.14H23.3988C23.351 20.5196 23.1501 21.8305 22.8293 23.0009ZM19.1395 17.8604H23.3984C23.3542 16.6053 23.183 15.4082 22.9102 14.3216C21.7359 14.6281 20.4631 14.805 19.1395 14.8405V17.8604Z" fill="white"/>
</g>
</svg>
