<svg width="54" height="54" viewBox="0 0 54 54" fill="none" xmlns="http://www.w3.org/2000/svg">
<g opacity="0.7">
<path d="M27.4033 0.998047C12.77 0.998047 0.90332 12.8652 0.90332 27.499C0.90332 42.1329 12.77 54 27.4033 54C42.0366 54 53.9033 42.1329 53.9033 27.499C53.9033 12.8652 42.0366 0.998047 27.4033 0.998047ZM27.965 42.9287C27.9646 42.9287 27.9654 42.9287 27.965 42.9287H27.9585C25.3039 42.9275 22.6954 42.2619 20.3788 40.9986L11.971 43.2037L14.2213 34.9868C12.8331 32.5824 12.1028 29.8545 12.104 27.0599C12.1077 18.3173 19.2228 11.2048 27.965 11.2048C32.2075 11.2064 36.19 12.8579 39.1843 15.8547C42.179 18.8519 43.8271 22.8358 43.8255 27.0724C43.8219 35.8154 36.706 42.9287 27.965 42.9287Z" fill="white"/>
<path d="M27.9703 13.8857C20.6987 13.8857 14.785 19.797 14.7817 27.0632C14.7809 29.5532 15.478 31.9781 16.7975 34.0763L17.1108 34.5748L15.7789 39.438L20.7683 38.1295L21.2499 38.415C23.2737 39.6159 25.5939 40.2511 27.9594 40.252H27.9646C35.2305 40.252 41.1443 34.3403 41.1475 27.0737C41.1487 23.5522 39.7788 20.2414 37.2899 17.7505C34.8011 15.2597 31.491 13.887 27.9703 13.8857ZM35.7243 32.729C35.3939 33.6541 33.8108 34.4988 33.0494 34.6129C32.3665 34.7148 31.5028 34.7572 30.5533 34.456C29.9775 34.2732 29.2396 34.0294 28.2938 33.6214C24.3185 31.9053 21.7221 27.9038 21.524 27.6394C21.3259 27.3749 19.9058 25.4911 19.9058 23.5409C19.9058 21.5911 20.9296 20.6324 21.2927 20.2361C21.6562 19.8394 22.0857 19.7404 22.3497 19.7404C22.6138 19.7404 22.8782 19.7428 23.1091 19.7541C23.3525 19.7662 23.6792 19.6615 24.0007 20.4342C24.3311 21.2276 25.1236 23.1774 25.2227 23.3755C25.3217 23.574 25.3877 23.8053 25.2558 24.0698C25.1236 24.3342 24.6845 24.9048 24.2652 25.4248C24.0893 25.6427 23.86 25.8368 24.0913 26.2335C24.3222 26.6297 25.1179 27.9273 26.2958 28.9778C27.8098 30.3275 29.0867 30.7456 29.483 30.9442C29.8789 31.1423 30.1102 31.1091 30.3414 30.8451C30.5723 30.5806 31.3321 29.6882 31.5962 29.2916C31.8602 28.8949 32.1247 28.9612 32.4878 29.0934C32.8513 29.2253 34.7995 30.184 35.1958 30.3821C35.592 30.5806 35.8561 30.6797 35.9552 30.8451C36.0546 31.0105 36.0546 31.8034 35.7243 32.729Z" fill="white"/>
</g>
</svg>
