<svg width="14" height="17" viewBox="0 0 14 17" fill="none" xmlns="http://www.w3.org/2000/svg">
<path opacity="0.5" d="M6.79999 8.49805C5.86499 8.49805 5.09999 7.73322 5.09999 6.79844C5.09999 5.86365 5.86499 5.09883 6.79999 5.09883C7.73499 5.09883 8.49998 5.86365 8.49998 6.79844C8.49998 7.73322 7.73499 8.49805 6.79999 8.49805ZM11.9 6.9684C11.9 3.88361 9.64748 1.69961 6.79999 1.69961C3.95249 1.69961 1.7 3.88361 1.7 6.9684C1.7 8.82384 3.14303 11.2416 6.13268 14.1111C6.50586 14.4693 7.09411 14.4693 7.4673 14.1111C10.4569 11.2416 11.9 8.82384 11.9 6.9684ZM6.79999 0C10.37 0 13.6 2.73637 13.6 6.9684C13.6 9.5106 11.7574 12.4737 8.07833 15.8639C7.35526 16.5302 6.24472 16.5302 5.52165 15.8639C1.84262 12.4737 0 9.5106 0 6.9684C0 2.73637 3.22999 0 6.79999 0Z" fill="#9399A8"/>
</svg>
