<svg width="31" height="31" viewBox="0 0 31 31" fill="none" xmlns="http://www.w3.org/2000/svg">
<path d="M23.5245 1.78874C21.1435 -0.592303 17.2723 -0.600187 14.8913 1.78874L8.91504 7.76499L17.5562 16.4061L23.5245 10.422C25.9056 8.03306 25.9056 4.16978 23.5245 1.78874ZM17.3985 5.32088L14.6784 8.00152L14.6705 8.00941C14.3552 8.31689 13.8585 8.30901 13.5589 7.99364C13.2514 7.67827 13.2593 7.18156 13.5746 6.88196L16.3026 4.20132L16.3105 4.19343C16.6258 3.88595 17.1225 3.89383 17.4221 4.2092C17.7217 4.51669 17.7139 5.02128 17.3985 5.32088Z" fill="white"/>
<path d="M7.79554 8.87695L1.77987 14.9005C-0.593289 17.2894 -0.593289 21.1448 1.77987 23.5338C4.18456 25.9069 8.05572 25.9069 10.4604 23.5338L16.4446 17.526L7.79554 8.87695Z" fill="white"/>
<path d="M29.2959 20.7505L20.7888 29.2655C23.2093 31.1183 26.6232 30.8975 28.7756 28.7451C30.9358 26.5927 31.1566 23.171 29.2959 20.7505Z" fill="white"/>
<path d="M24.4865 18.3848C21.1357 18.3848 18.4156 21.0969 18.4156 24.4556C18.4156 25.796 18.8572 27.0969 19.6692 28.1533L28.1763 19.6462C27.1199 18.8263 25.8268 18.3848 24.4865 18.3848Z" fill="white"/>
</svg>
