<svg width="30" height="30" viewBox="0 0 30 30" fill="none" xmlns="http://www.w3.org/2000/svg">
<path d="M0.43103 0.424805V29.8419H15.335V0.424805H0.43103ZM1.97791 3.24865H7.13416V11.1309H1.97791V3.24865ZM1.97791 12.6042H7.13416V19.1358H1.97791V12.6042ZM13.7636 27.6565H1.95334V21.9106H13.7636V27.6565ZM13.7636 19.1358H8.60739V12.6042H13.7636V19.1358ZM13.7636 11.1309H8.60739V3.24865H13.7636V11.1309Z" fill="white"/>
<path d="M16.0715 5.94971V29.8419H29.9935V5.94971H16.0715ZM20.0493 25.2501H17.3729V7.20202H20.0493V25.2501ZM24.3707 25.2501H21.6943V7.20202H24.3707V25.2501ZM28.6921 25.2501H26.0158V7.20202H28.6921V25.2501Z" fill="white"/>
</svg>
