<svg width="28" height="28" viewBox="0 0 28 28" fill="none" xmlns="http://www.w3.org/2000/svg">
<path d="M27.2627 23.8068L16.2836 12.8277L3.45638 0.000488281H2.45393L2.24924 0.520609C1.70899 1.89345 1.47816 3.29758 1.58179 4.58101C1.69992 6.04398 2.25569 7.31056 3.18913 8.244L13.2027 18.2576L14.5235 16.9368L23.7811 27.2885C24.702 28.2095 26.2871 28.2641 27.2627 27.2885C28.2226 26.3286 28.2226 24.7667 27.2627 23.8068Z" fill="white"/>
<path d="M8.5625 15.939L0.71989 23.7816C-0.239963 24.7414 -0.239963 26.3033 0.71989 27.2632C1.63173 28.175 3.20915 28.2555 4.20149 27.2632L12.0442 19.4205L8.5625 15.939Z" fill="white"/>
<path d="M26.8017 4.66271L22.3529 9.11144L21.1923 7.95089L25.6411 3.50211L24.4805 2.34156L20.0318 6.79028L18.8713 5.62973L23.32 1.181L22.1596 0.0205078L16.3568 5.82327C15.6469 6.53315 15.223 7.47572 15.1631 8.47746C15.148 8.73126 15.0904 8.98091 14.995 9.21835L18.7645 12.9878C19.0019 12.8923 19.2516 12.8348 19.5054 12.8197C20.5071 12.7599 21.4497 12.3359 22.1596 11.626L27.9623 5.82332L26.8017 4.66271Z" fill="white"/>
</svg>
