<svg width="196" height="196" viewBox="0 0 196 196" fill="none" xmlns="http://www.w3.org/2000/svg">
<g filter="url(#filter0_d)">
<circle cx="98" cy="98" r="68" stroke="white" stroke-width="20" stroke-linecap="round"/>
</g>
<path d="M176 98C176 141.078 141.078 176 98 176C54.9218 176 20 141.078 20 98C20 54.9218 54.9218 20 98 20C141.078 20 176 54.9218 176 98ZM41.7595 98C41.7595 129.061 66.9392 154.24 98 154.24C129.061 154.24 154.24 129.061 154.24 98C154.24 66.9392 129.061 41.7595 98 41.7595C66.9392 41.7595 41.7595 66.9392 41.7595 98Z" fill="#FBBE47"/>
<path d="M176 98C176 141.078 141.078 176 98 176C54.9218 176 20 141.078 20 98C20 54.9218 54.9218 20 98 20C141.078 20 176 54.9218 176 98ZM41.7595 98C41.7595 129.061 66.9392 154.24 98 154.24C129.061 154.24 154.24 129.061 154.24 98C154.24 66.9392 129.061 41.7595 98 41.7595C66.9392 41.7595 41.7595 66.9392 41.7595 98Z" fill="url(#paint0_linear)"/>
<path d="M97.7083 77.0933L73.4711 92.6017V127.08C73.4711 128.006 74.1788 128.733 75.0797 128.733H97.7083H120.337C121.238 128.733 121.946 128.006 121.946 127.08V92.6017L97.7083 77.0933Z" fill="#F0F7FF"/>
<path d="M121.946 127.08V92.6017L97.7084 77.0933V128.733H120.337C121.238 128.733 121.946 128.006 121.946 127.08Z" fill="#DFE7F4"/>
<path d="M124.407 89.0837L98.5614 72.5502C98.3006 72.3823 98.0045 72.2983 97.7084 72.2983C97.4123 72.2983 97.1162 72.3823 96.8554 72.5502L71.0094 89.0837C70.5397 89.3856 70.2538 89.9153 70.2538 90.4852V94.9771C70.2538 95.5777 70.5711 96.1315 71.0832 96.4238C71.5906 96.7128 72.219 96.6982 72.7155 96.3786L97.7084 80.3939L122.701 96.3786C123.206 96.7037 123.831 96.7089 124.334 96.4238C124.846 96.1315 125.163 95.5777 125.163 94.9771V90.4852C125.163 89.9153 124.877 89.3856 124.407 89.0837Z" fill="#979FEF"/>
<path d="M124.334 96.4238C124.846 96.1315 125.163 95.5777 125.163 94.9771V90.4852C125.163 89.9153 124.877 89.3856 124.407 89.0837L98.5614 72.5502C98.3006 72.3823 98.0045 72.2983 97.7084 72.2983V80.3939L122.701 96.3786C123.206 96.7037 123.831 96.7089 124.334 96.4238Z" fill="#6B77E8"/>
<path d="M107.87 98.8385L98.2175 95.5318C98.0526 95.4754 97.8806 95.4463 97.7086 95.4463C97.5365 95.4463 97.3645 95.4754 97.1996 95.5318L87.5476 98.8385C86.8909 99.0631 86.4479 99.6943 86.4479 100.406V106.484C86.4479 113.451 90.768 119.612 97.1996 121.814C97.3645 121.871 97.5373 121.9 97.7086 121.9C97.8798 121.9 98.0526 121.871 98.2175 121.814C104.649 119.612 108.969 113.451 108.969 106.484V100.406C108.969 99.6943 108.526 99.0631 107.87 98.8385Z" fill="#DFE7F4"/>
<path d="M108.969 106.483V100.406C108.969 99.6938 108.526 99.0625 107.869 98.838L98.2175 95.5313C98.0525 95.4749 97.8805 95.4458 97.7085 95.4458V121.899C97.8798 121.899 98.0525 121.87 98.2175 121.814C104.649 119.612 108.969 113.45 108.969 106.483Z" fill="#C7CFE1"/>
<path d="M97.7085 118.491C92.8753 116.596 89.6652 111.84 89.6652 106.483V101.598L97.7085 98.8428L105.752 101.598V106.483C105.752 111.84 102.541 116.597 97.7085 118.491Z" fill="#979FEF"/>
<path d="M105.752 106.483V101.598L97.7085 98.8428V118.491C102.541 116.597 105.752 111.84 105.752 106.483Z" fill="#6B77E8"/>
<path d="M111.758 68C103.774 68 97.2795 74.6748 97.2795 82.8802C97.2795 91.0856 103.774 97.7604 111.758 97.7604C119.741 97.7604 126.128 91.0856 126.128 82.8802C126.128 74.6748 119.741 68 111.758 68Z" fill="#FED843"/>
<path d="M126.128 82.8802C126.128 74.6748 119.741 68 111.758 68V97.7604C119.741 97.7604 126.128 91.0856 126.128 82.8802Z" fill="#FABE2C"/>
<path d="M111.758 81.2273C110.87 81.2273 110.149 80.4861 110.149 79.5739C110.149 78.6617 110.87 77.9205 111.758 77.9205C112.645 77.9205 113.366 78.6617 113.366 79.5739C113.366 80.4878 114.086 81.2273 114.975 81.2273C115.864 81.2273 116.584 80.4878 116.584 79.5739C116.584 77.4212 115.235 75.6032 113.366 74.9184V72.9605C113.366 72.0466 112.647 71.3071 111.758 71.3071C110.868 71.3071 110.149 72.0466 110.149 72.9605V74.9184C108.28 75.6032 106.932 77.4212 106.932 79.5739C106.932 82.309 109.096 84.534 111.758 84.534C112.645 84.534 113.366 85.2751 113.366 86.1873C113.366 87.0995 112.645 87.8407 111.758 87.8407C110.87 87.8407 110.149 87.0995 110.149 86.1873C110.149 85.2735 109.429 84.534 108.54 84.534C107.651 84.534 106.932 85.2735 106.932 86.1873C106.932 88.34 108.28 90.158 110.149 90.8428V92.8007C110.149 93.7146 110.868 94.4541 111.758 94.4541C112.647 94.4541 113.366 93.7146 113.366 92.8007V90.8428C115.235 90.158 116.584 88.34 116.584 86.1873C116.584 83.4522 114.419 81.2273 111.758 81.2273Z" fill="#FABE2C"/>
<path d="M113.366 79.5739C113.366 80.4878 114.086 81.2273 114.975 81.2273C115.864 81.2273 116.584 80.4878 116.584 79.5739C116.584 77.4212 115.235 75.6032 113.366 74.9184V72.9605C113.366 72.0466 112.647 71.3071 111.758 71.3071V77.9205C112.645 77.9205 113.366 78.6617 113.366 79.5739Z" fill="#FF9100"/>
<path d="M113.366 92.8005V90.8426C115.235 90.1578 116.584 88.3398 116.584 86.1871C116.584 83.452 114.419 81.2271 111.758 81.2271V84.5338C112.645 84.5338 113.366 85.2749 113.366 86.1871C113.366 87.0993 112.645 87.8405 111.758 87.8405V94.4539C112.647 94.4539 113.366 93.7144 113.366 92.8005Z" fill="#FF9100"/>
<defs>
<filter id="filter0_d" x="0" y="0" width="196" height="196" filterUnits="userSpaceOnUse" color-interpolation-filters="sRGB">
<feFlood flood-opacity="0" result="BackgroundImageFix"/>
<feColorMatrix in="SourceAlpha" type="matrix" values="0 0 0 0 0 0 0 0 0 0 0 0 0 0 0 0 0 0 127 0"/>
<feOffset/>
<feGaussianBlur stdDeviation="10"/>
<feColorMatrix type="matrix" values="0 0 0 0 0.376471 0 0 0 0 0.376471 0 0 0 0 0.376471 0 0 0 0.15 0"/>
<feBlend mode="normal" in2="BackgroundImageFix" result="effect1_dropShadow"/>
<feBlend mode="normal" in="SourceGraphic" in2="effect1_dropShadow" result="shape"/>
</filter>
<linearGradient id="paint0_linear" x1="98" y1="20" x2="98" y2="155.379" gradientUnits="userSpaceOnUse">
<stop stop-color="#FBBE47"/>
<stop offset="1" stop-color="#FF7612"/>
</linearGradient>
</defs>
</svg>
