<svg width="196" height="196" viewBox="0 0 196 196" fill="none" xmlns="http://www.w3.org/2000/svg">
<g filter="url(#filter0_d)">
<circle cx="98" cy="98" r="68" stroke="white" stroke-width="20" stroke-linecap="round"/>
</g>
<path d="M98 20C115.17 20 131.861 25.6657 145.483 36.1184C159.106 46.5712 168.898 61.2267 173.342 77.8121C177.786 94.3975 176.633 111.986 170.063 127.849C163.492 143.713 151.87 156.965 137 165.55C122.13 174.135 104.843 177.574 87.819 175.333C70.7954 173.092 54.987 165.296 42.8457 153.154C30.7043 141.013 22.9085 125.205 20.6673 108.181C18.4261 91.1575 21.8648 73.8701 30.45 59L49.371 69.924C43.1905 80.6289 40.715 93.0741 42.3284 105.329C43.9419 117.585 49.5541 128.965 58.2946 137.705C67.0351 146.446 78.4155 152.058 90.6707 153.672C102.926 155.285 115.371 152.809 126.076 146.629C136.781 140.449 145.147 130.908 149.878 119.488C154.608 108.068 155.438 95.4066 152.239 83.4668C149.039 71.527 141.99 60.9765 132.183 53.4517C122.377 45.9268 110.361 41.8481 98 41.8481L98 20Z" fill="#FBBE47"/>
<path d="M98 20C115.17 20 131.861 25.6657 145.483 36.1184C159.106 46.5712 168.898 61.2267 173.342 77.8121C177.786 94.3975 176.633 111.986 170.063 127.849C163.492 143.713 151.87 156.965 137 165.55C122.13 174.135 104.843 177.574 87.819 175.333C70.7954 173.092 54.987 165.296 42.8457 153.154C30.7043 141.013 22.9085 125.205 20.6673 108.181C18.4261 91.1575 21.8648 73.8701 30.45 59L49.371 69.924C43.1905 80.6289 40.715 93.0741 42.3284 105.329C43.9419 117.585 49.5541 128.965 58.2946 137.705C67.0351 146.446 78.4155 152.058 90.6707 153.672C102.926 155.285 115.371 152.809 126.076 146.629C136.781 140.449 145.147 130.908 149.878 119.488C154.608 108.068 155.438 95.4066 152.239 83.4668C149.039 71.527 141.99 60.9765 132.183 53.4517C122.377 45.9268 110.361 41.8481 98 41.8481L98 20Z" fill="url(#paint0_linear)"/>
<path d="M80.6247 110.432C83.5529 110.432 85.9267 107.952 85.9267 104.894C85.9267 101.835 83.5529 99.355 80.6247 99.355C77.6965 99.355 75.3228 101.835 75.3228 104.894C75.3228 107.952 77.6965 110.432 80.6247 110.432Z" fill="#FFE1BA"/>
<path d="M85.9267 104.894C85.9267 101.839 83.5484 99.355 80.6248 99.355V110.432C83.5484 110.432 85.9267 107.948 85.9267 104.894Z" fill="#FFBFAB"/>
<path d="M80.6247 110.432C75.7524 110.432 71.7881 114.573 71.7881 119.663C71.7881 120.683 72.5786 121.509 73.5554 121.509H80.6247H87.694C88.6709 121.509 89.4614 120.683 89.4614 119.663C89.4614 114.573 85.497 110.432 80.6247 110.432Z" fill="#979FEF"/>
<path d="M89.4614 119.663C89.4614 114.573 85.497 110.432 80.6248 110.432V121.509H87.6941C88.6709 121.509 89.4614 120.683 89.4614 119.663Z" fill="#6B77E8"/>
<path d="M92.6215 118.527C92.2866 118.078 91.7723 117.817 91.2287 117.817H80.6247H70.0207C69.4771 117.817 68.9628 118.078 68.628 118.527C68.2931 118.974 68.174 119.558 68.3069 120.11L70.0742 127.618C70.271 128.44 70.9769 129.017 71.7881 129.017H80.6247H89.4614C90.2726 129.017 90.9784 128.44 91.1752 127.618L92.9425 120.11C93.0754 119.558 92.9563 118.974 92.6215 118.527Z" fill="#F0F7FF"/>
<path d="M91.1752 127.618L92.9426 120.11C93.0755 119.559 92.9563 118.974 92.6215 118.527C92.2866 118.078 91.7724 117.817 91.2287 117.817H80.6248V129.017H89.4614C90.2726 129.017 90.9785 128.44 91.1752 127.618Z" fill="#DFE7F4"/>
<path d="M116.207 110.432C119.135 110.432 121.509 107.952 121.509 104.894C121.509 101.835 119.135 99.355 116.207 99.355C113.279 99.355 110.905 101.835 110.905 104.894C110.905 107.952 113.279 110.432 116.207 110.432Z" fill="#FFE1BA"/>
<path d="M121.509 104.894C121.509 101.839 119.131 99.355 116.207 99.355V110.432C119.131 110.432 121.509 107.948 121.509 104.894Z" fill="#FFBFAB"/>
<path d="M116.207 110.432C111.335 110.432 107.37 114.573 107.37 119.663C107.37 120.683 108.161 121.509 109.138 121.509H116.207H123.276C124.253 121.509 125.044 120.683 125.044 119.663C125.044 114.573 121.079 110.432 116.207 110.432Z" fill="#979FEF"/>
<path d="M125.044 119.663C125.044 114.573 121.079 110.432 116.207 110.432V121.509H123.276C124.253 121.509 125.044 120.683 125.044 119.663Z" fill="#6B77E8"/>
<path d="M128.204 118.527C127.869 118.078 127.355 117.817 126.811 117.817H116.207H105.603C105.059 117.817 104.545 118.078 104.21 118.527C103.875 118.974 103.756 119.558 103.889 120.11L105.657 127.618C105.853 128.44 106.559 129.017 107.37 129.017H116.207H125.044C125.855 129.017 126.561 128.44 126.757 127.618L128.525 120.11C128.658 119.558 128.539 118.974 128.204 118.527Z" fill="#F0F7FF"/>
<path d="M126.758 127.618L128.525 120.11C128.658 119.559 128.539 118.974 128.204 118.527C127.869 118.078 127.355 117.817 126.811 117.817H116.207V129.017H125.044C125.855 129.017 126.561 128.44 126.758 127.618Z" fill="#DFE7F4"/>
<path d="M98.416 77.0772C101.409 77.0772 103.836 74.5975 103.836 71.5386C103.836 68.4797 101.409 66 98.416 66C95.4227 66 92.9962 68.4797 92.9962 71.5386C92.9962 74.5975 95.4227 77.0772 98.416 77.0772Z" fill="#FFE1BA"/>
<path d="M103.836 71.5386C103.836 68.4845 101.34 66 98.416 66V77.0772C101.34 77.0772 103.836 74.5927 103.836 71.5386Z" fill="#FFBFAB"/>
<path d="M98.4158 77.0776C93.5435 77.0776 89.4613 81.2189 89.4613 86.3086C89.4613 87.3291 90.2518 88.1548 91.2286 88.1548H98.4158H105.603C106.58 88.1548 107.37 87.3291 107.37 86.3086C107.37 81.2189 103.288 77.0776 98.4158 77.0776Z" fill="#FF641A"/>
<path d="M107.37 86.3086C107.37 81.2189 103.288 77.0776 98.416 77.0776V88.1548H105.603C106.58 88.1548 107.37 87.3291 107.37 86.3086Z" fill="#F03800"/>
<path d="M110.531 85.1722C110.196 84.7233 109.681 84.4619 109.138 84.4619H98.416H87.6942C87.1506 84.4619 86.6363 84.7233 86.3014 85.1722C85.9666 85.6194 85.8475 86.2035 85.9804 86.7551L87.7477 94.263C87.9445 95.0853 88.6503 95.6622 89.4615 95.6622H98.416H107.37C108.182 95.6622 108.888 95.0852 109.084 94.2631L110.852 86.7553C110.985 86.2035 110.865 85.6194 110.531 85.1722Z" fill="#F0F7FF"/>
<path d="M109.084 94.2631L110.852 86.7553C110.985 86.2036 110.865 85.6194 110.531 85.1723C110.196 84.7233 109.681 84.4619 109.138 84.4619H98.416V95.6622H107.37C108.182 95.6622 108.888 95.0853 109.084 94.2631Z" fill="#DFE7F4"/>
<path d="M106.853 110.973L100.183 104.129V101.201C100.183 100.181 99.3928 99.355 98.4159 99.355C97.4391 99.355 96.6486 100.181 96.6486 101.201V104.129L89.9793 110.973C89.289 111.694 89.289 112.863 89.9793 113.584C90.6696 114.305 91.7881 114.305 92.4784 113.584L98.4159 107.504L104.354 113.584C105.044 114.305 106.162 114.305 106.853 113.584C107.543 112.863 107.543 111.694 106.853 110.973Z" fill="#C3EA21"/>
<path d="M106.853 113.584C107.543 112.863 107.543 111.694 106.853 110.973L100.183 104.129V101.201C100.183 100.181 99.3929 99.355 98.416 99.355V107.504L104.354 113.584C105.044 114.305 106.162 114.305 106.853 113.584Z" fill="#9CDD05"/>
<defs>
<filter id="filter0_d" x="0" y="0" width="196" height="196" filterUnits="userSpaceOnUse" color-interpolation-filters="sRGB">
<feFlood flood-opacity="0" result="BackgroundImageFix"/>
<feColorMatrix in="SourceAlpha" type="matrix" values="0 0 0 0 0 0 0 0 0 0 0 0 0 0 0 0 0 0 127 0"/>
<feOffset/>
<feGaussianBlur stdDeviation="10"/>
<feColorMatrix type="matrix" values="0 0 0 0 0.376471 0 0 0 0 0.376471 0 0 0 0 0.376471 0 0 0 0.15 0"/>
<feBlend mode="normal" in2="BackgroundImageFix" result="effect1_dropShadow"/>
<feBlend mode="normal" in="SourceGraphic" in2="effect1_dropShadow" result="shape"/>
</filter>
<linearGradient id="paint0_linear" x1="98" y1="20" x2="98" y2="155.379" gradientUnits="userSpaceOnUse">
<stop stop-color="#FBBE47"/>
<stop offset="1" stop-color="#FF7612"/>
</linearGradient>
</defs>
</svg>
