<svg width="196" height="196" viewBox="0 0 196 196" fill="none" xmlns="http://www.w3.org/2000/svg">
<g filter="url(#filter0_d)">
<circle cx="98" cy="98" r="68" stroke="white" stroke-width="20" stroke-linecap="round"/>
</g>
<path d="M98 20C113.427 20 128.507 24.5746 141.334 33.1454C154.162 41.7161 164.159 53.8981 170.063 68.1507C175.966 82.4033 177.511 98.0865 174.501 113.217C171.492 128.348 164.063 142.246 153.154 153.154L137.695 137.695C145.546 129.844 150.892 119.841 153.058 108.952C155.224 98.0623 154.113 86.775 149.864 76.5173C145.615 66.2596 138.42 57.4923 129.188 51.3239C119.956 45.1555 109.103 41.8631 98 41.8631L98 20Z" fill="#FBBE47"/>
<path d="M98 20C113.427 20 128.507 24.5746 141.334 33.1454C154.162 41.7161 164.159 53.8981 170.063 68.1507C175.966 82.4033 177.511 98.0865 174.501 113.217C171.492 128.348 164.063 142.246 153.154 153.154L137.695 137.695C145.546 129.844 150.892 119.841 153.058 108.952C155.224 98.0623 154.113 86.775 149.864 76.5173C145.615 66.2596 138.42 57.4923 129.188 51.3239C119.956 45.1555 109.103 41.8631 98 41.8631L98 20Z" fill="url(#paint0_linear)"/>
<path d="M97.9836 74.8428L73.5034 90.5066V125.33C73.5034 126.265 74.2182 127 75.1282 127H97.9836H120.839C121.749 127 122.464 126.265 122.464 125.33V90.5066L97.9836 74.8428Z" fill="#F0F7FF"/>
<path d="M122.464 125.33V90.5066L97.9835 74.8428V127H120.839C121.749 127 122.464 126.265 122.464 125.33Z" fill="#DFE7F4"/>
<path d="M124.95 86.9536L98.8451 70.2544C98.5817 70.0848 98.2826 70 97.9835 70C97.6844 70 97.3854 70.0848 97.1219 70.2544L71.017 86.9536C70.5426 87.2585 70.2538 87.7935 70.2538 88.3691V92.906C70.2538 93.5126 70.5743 94.072 71.0915 94.3672C71.604 94.6591 72.2387 94.6444 72.7401 94.3215L97.9835 78.1767L123.227 94.3215C123.737 94.6499 124.368 94.6552 124.876 94.3672C125.393 94.072 125.713 93.5126 125.713 92.906V88.3691C125.713 87.7935 125.424 87.2585 124.95 86.9536Z" fill="#979FEF"/>
<path d="M124.876 94.3672C125.393 94.072 125.713 93.5126 125.713 92.906V88.3691C125.713 87.7935 125.424 87.2585 124.95 86.9536L98.8451 70.2544C98.5817 70.0848 98.2826 70 97.9835 70V78.1767L123.227 94.3215C123.737 94.6499 124.368 94.6552 124.876 94.3672Z" fill="#6B77E8"/>
<path d="M99.6083 90.0391H97.9835H96.3587C93.6709 90.0391 91.4844 92.2863 91.4844 95.0488V98.3887C91.4844 99.3117 92.2111 100.059 93.1092 100.059C94.0072 100.059 94.734 99.3117 94.734 98.3887V95.0488C94.734 94.1275 95.4623 93.3789 96.3587 93.3789H97.9835H99.6083C100.505 93.3789 101.233 94.1275 101.233 95.0488V98.3887C101.233 99.3117 101.96 100.059 102.858 100.059C103.756 100.059 104.483 99.3117 104.483 98.3887V95.0488C104.483 92.2863 102.296 90.0391 99.6083 90.0391Z" fill="#4B2746"/>
<path d="M101.233 95.0488V98.3887C101.233 99.3117 101.96 100.059 102.858 100.059C103.756 100.059 104.483 99.3117 104.483 98.3887V95.0488C104.483 92.2863 102.296 90.0391 99.6083 90.0391H97.9835V93.3789H99.6083C100.505 93.3789 101.233 94.1275 101.233 95.0488Z" fill="#351B33"/>
<path d="M97.9836 98.3887H83.3605V118.428C83.3605 119.351 84.0872 120.098 84.9853 120.098H97.9836H110.982C111.88 120.098 112.607 119.351 112.607 118.428V98.3887H97.9836Z" fill="#4B2746"/>
<path d="M112.607 118.428V98.3887H97.9835V120.098H110.982C111.88 120.098 112.607 119.351 112.607 118.428Z" fill="#351B33"/>
<path d="M97.9836 106.738C97.0855 106.738 96.3588 107.485 96.3588 108.408V111.748C96.3588 112.671 97.0855 113.418 97.9836 113.418C98.8816 113.418 99.6083 112.671 99.6083 111.748V108.408C99.6083 107.485 98.8816 106.738 97.9836 106.738Z" fill="#FABE2C"/>
<path d="M99.6083 111.748V108.408C99.6083 107.485 98.8816 106.738 97.9835 106.738V113.418C98.8816 113.418 99.6083 112.671 99.6083 111.748Z" fill="#FF9100"/>
<path d="M110.982 96.7188H97.9836H84.9853C84.0872 96.7188 83.3605 97.4657 83.3605 98.3887L90.1326 109.334C90.434 109.799 90.9418 110.078 91.4844 110.078H97.9836H104.483C105.025 110.078 105.533 109.799 105.835 109.334L112.607 98.3887C112.607 97.4657 111.88 96.7188 110.982 96.7188Z" fill="#613D5C"/>
<path d="M105.835 109.334L112.607 98.3887C112.607 97.4657 111.88 96.7188 110.982 96.7188H97.9835V110.078H104.483C105.025 110.078 105.533 109.799 105.835 109.334Z" fill="#4B2746"/>
<defs>
<filter id="filter0_d" x="0" y="0" width="196" height="196" filterUnits="userSpaceOnUse" color-interpolation-filters="sRGB">
<feFlood flood-opacity="0" result="BackgroundImageFix"/>
<feColorMatrix in="SourceAlpha" type="matrix" values="0 0 0 0 0 0 0 0 0 0 0 0 0 0 0 0 0 0 127 0"/>
<feOffset/>
<feGaussianBlur stdDeviation="10"/>
<feColorMatrix type="matrix" values="0 0 0 0 0.376471 0 0 0 0 0.376471 0 0 0 0 0.376471 0 0 0 0.15 0"/>
<feBlend mode="normal" in2="BackgroundImageFix" result="effect1_dropShadow"/>
<feBlend mode="normal" in="SourceGraphic" in2="effect1_dropShadow" result="shape"/>
</filter>
<linearGradient id="paint0_linear" x1="98" y1="20" x2="98" y2="155.379" gradientUnits="userSpaceOnUse">
<stop stop-color="#FBBE47"/>
<stop offset="1" stop-color="#FF7612"/>
</linearGradient>
</defs>
</svg>
