<svg width="196" height="196" viewBox="0 0 196 196" fill="none" xmlns="http://www.w3.org/2000/svg">
<g filter="url(#filter0_d)">
<circle cx="98" cy="98" r="68" stroke="white" stroke-width="20" stroke-linecap="round"/>
</g>
<path d="M98 20C112.625 20 126.956 24.112 139.357 31.8665C151.757 39.6211 161.727 50.7058 168.13 63.8554L148.636 73.3466C144.013 63.8522 136.814 55.8487 127.861 50.2497C118.907 44.6507 108.56 41.6817 98 41.6817L98 20Z" fill="#FBBE47"/>
<path d="M98 20C112.625 20 126.956 24.112 139.357 31.8665C151.757 39.6211 161.727 50.7058 168.13 63.8554L148.636 73.3466C144.013 63.8522 136.814 55.8487 127.861 50.2497C118.907 44.6507 108.56 41.6817 98 41.6817L98 20Z" fill="url(#paint0_linear)"/>
<path d="M126.544 74.9153V117.051H68.8305V74.9153C68.8305 73.8426 69.6731 73 70.7458 73H124.629C125.701 73 126.544 73.8426 126.544 74.9153Z" fill="#4B2746"/>
<path d="M126.544 74.9153V117.051H97.6873V73H124.629C125.701 73 126.544 73.8426 126.544 74.9153Z" fill="#351B33"/>
<path d="M72.6611 76.8306H122.713V111.305H72.6611V76.8306Z" fill="#F0F7FF"/>
<path d="M95.7719 94.068C95.7719 99.3478 91.4753 103.644 86.1956 103.644C80.916 103.644 76.4916 99.3653 76.4916 94.068C76.4916 88.767 80.9194 84.4917 86.1956 84.4917V94.068H95.7719Z" fill="#979FEF"/>
<path d="M95.7719 94.068H86.1956V84.4917C91.4753 84.4917 95.7719 88.7883 95.7719 94.068Z" fill="#FF641A"/>
<path d="M97.6873 76.8306H122.713V111.305H97.6873V76.8306Z" fill="#DFE7F4"/>
<path d="M116.968 88.3222H109.179C108.12 88.3222 107.264 87.4656 107.264 86.407C107.264 85.3483 108.12 84.4917 109.179 84.4917H116.968C118.026 84.4917 118.883 85.3483 118.883 86.407C118.883 87.4656 118.026 88.3222 116.968 88.3222Z" fill="#4B2746"/>
<path d="M101.518 88.3217C102.575 88.3217 103.433 87.4642 103.433 86.4065C103.433 85.3487 102.575 84.4912 101.518 84.4912C100.46 84.4912 99.6023 85.3487 99.6023 86.4065C99.6023 87.4642 100.46 88.3217 101.518 88.3217Z" fill="#4B2746"/>
<path d="M116.967 95.9834H101.518C100.459 95.9834 99.6023 95.1267 99.6023 94.0681C99.6023 93.0095 100.459 92.1528 101.518 92.1528H116.967C118.026 92.1528 118.883 93.0095 118.883 94.0681C118.883 95.1267 118.026 95.9834 116.967 95.9834Z" fill="#4B2746"/>
<path d="M116.967 103.644H101.518C100.459 103.644 99.6023 102.787 99.6023 101.729C99.6023 100.67 100.459 99.8135 101.518 99.8135H116.967C118.026 99.8135 118.883 100.67 118.883 101.729C118.883 102.787 118.026 103.644 116.967 103.644Z" fill="#4B2746"/>
<path d="M66.9153 115.136C65.8575 115.136 65 115.994 65 117.051C65 120.225 67.5725 122.797 70.7458 122.797H88.1109L91.9414 119.126L88.1109 115.136H66.9153Z" fill="#DFE7F4"/>
<path d="M128.459 115.135H107.264L103.433 119.285L107.264 122.796H124.629C127.802 122.796 130.374 120.224 130.374 117.051C130.374 115.993 129.517 115.135 128.459 115.135Z" fill="#C7CFE1"/>
<path d="M88.1108 115.136H107.263V122.797H88.1108V115.136Z" fill="#F0F7FF"/>
<path d="M97.6873 115.136H107.264V122.797H97.6873V115.136Z" fill="#DFE7F4"/>
<defs>
<filter id="filter0_d" x="0" y="0" width="196" height="196" filterUnits="userSpaceOnUse" color-interpolation-filters="sRGB">
<feFlood flood-opacity="0" result="BackgroundImageFix"/>
<feColorMatrix in="SourceAlpha" type="matrix" values="0 0 0 0 0 0 0 0 0 0 0 0 0 0 0 0 0 0 127 0"/>
<feOffset/>
<feGaussianBlur stdDeviation="10"/>
<feColorMatrix type="matrix" values="0 0 0 0 0.376471 0 0 0 0 0.376471 0 0 0 0 0.376471 0 0 0 0.15 0"/>
<feBlend mode="normal" in2="BackgroundImageFix" result="effect1_dropShadow"/>
<feBlend mode="normal" in="SourceGraphic" in2="effect1_dropShadow" result="shape"/>
</filter>
<linearGradient id="paint0_linear" x1="98" y1="20" x2="98" y2="155.379" gradientUnits="userSpaceOnUse">
<stop stop-color="#FBBE47"/>
<stop offset="1" stop-color="#FF7612"/>
</linearGradient>
</defs>
</svg>
